<?xml version="1.0" standalone="no"?>
<!DOCTYPE svg PUBLIC "-//W3C//DTD SVG 1.1//EN" "http://www.w3.org/Graphics/SVG/1.1/DTD/svg11.dtd" >
<svg xmlns="http://www.w3.org/2000/svg">
<metadata>Generated by IcoMoon</metadata>
<defs>
<font id="icomoon" horiz-adv-x="1024">
<font-face units-per-em="1024" ascent="960" descent="-64" />
<missing-glyph horiz-adv-x="1024" />
<glyph unicode="&#x20;" horiz-adv-x="512" d="" />
<glyph unicode="&#xe900;" glyph-name="arrow_down" d="M520 144c-9.6 0-16 3.2-24 11.2l-476.8 486.4c-6.4 6.4-9.6 14.4-9.6 24s3.2 17.6 9.6 24l51.2 52.8c6.4 6.4 14.4 9.6 22.4 9.6s16-3.2 24-11.2l403.2-411.2 403.2 411.2c6.4 6.4 14.4 11.2 24 11.2s16-3.2 24-11.2l51.2-52.8c6.4-6.4 9.6-14.4 9.6-24s-3.2-17.6-9.6-24l-478.4-484.8c-6.4-8-14.4-11.2-24-11.2z" />
<glyph unicode="&#xe901;" glyph-name="arrow_fat_down" d="M19.2 598.4l446.4-435.2c25.6-24 65.6-25.6 91.2 0l448 435.2c12.8 12.8 19.2 27.2 19.2 44.8 0 16-6.4 32-19.2 44.8l-48 46.4c-25.6 24-65.6 24-91.2 0l-353.6-345.6-353.6 344c-12.8 12.8-28.8 19.2-46.4 19.2-16 0-32-6.4-44.8-19.2l-48-46.4c-12.8-12.8-19.2-27.2-19.2-44.8 0-16 6.4-32 19.2-43.2z" />
<glyph unicode="&#xe902;" glyph-name="arrow_fat_left" d="M662.4 940.8l-435.2-446.4c-24-25.6-25.6-65.6 0-91.2l435.2-448c12.8-12.8 27.2-19.2 44.8-19.2 16 0 32 6.4 44.8 19.2l46.4 48c24 25.6 24 65.6 0 91.2l-345.6 353.6 344 353.6c12.8 12.8 19.2 28.8 19.2 46.4 0 16-6.4 32-19.2 44.8l-46.4 48c-12.8 12.8-27.2 19.2-44.8 19.2-16 0-32-6.4-43.2-19.2z" />
<glyph unicode="&#xe903;" glyph-name="arrow_fat_right" d="M361.6 940.8l435.2-446.4c24-25.6 25.6-65.6 0-91.2l-435.2-448c-12.8-12.8-27.2-19.2-44.8-19.2-16 0-32 6.4-44.8 19.2l-46.4 48c-24 25.6-24 65.6 0 91.2l345.6 353.6-344 353.6c-12.8 12.8-19.2 28.8-19.2 46.4 0 16 6.4 32 19.2 44.8l46.4 48c12.8 12.8 27.2 19.2 44.8 19.2 16 0 32-6.4 43.2-19.2z" />
<glyph unicode="&#xe904;" glyph-name="arrow_fat_up" d="M1004.8 297.6l-446.4 435.2c-25.6 24-65.6 25.6-91.2 0l-448-435.2c-12.8-11.2-19.2-27.2-19.2-43.2s6.4-32 19.2-44.8l48-46.4c25.6-24 65.6-24 91.2 0l353.6 344 353.6-344c12.8-12.8 28.8-19.2 44.8-19.2 17.6 0 33.6 6.4 44.8 19.2l48 46.4c12.8 12.8 19.2 27.2 19.2 44.8 1.6 16-4.8 32-17.6 43.2z" />
<glyph unicode="&#xe905;" glyph-name="arrow_left" d="M219.2 472l486.4 478.4c6.4 6.4 14.4 9.6 24 9.6s17.6-3.2 24-9.6l52.8-51.2c6.4-8 9.6-16 9.6-24 0-9.6-3.2-17.6-11.2-24l-409.6-403.2 411.2-403.2c6.4-6.4 11.2-14.4 11.2-24s-3.2-16-11.2-24l-52.8-51.2c-6.4-6.4-14.4-9.6-24-9.6s-17.6 3.2-24 9.6l-486.4 478.4c-8 8-11.2 14.4-11.2 24s3.2 16 11.2 24z" />
<glyph unicode="&#xe906;" glyph-name="arrow_right" d="M816 448c0-9.6-3.2-16-11.2-24l-486.4-478.4c-6.4-6.4-14.4-9.6-24-9.6s-17.6 3.2-24 9.6l-52.8 51.2c-6.4 6.4-11.2 14.4-11.2 24s3.2 16 11.2 24l411.2 403.2-409.6 403.2c-8 6.4-11.2 14.4-11.2 24s3.2 16 11.2 24l52.8 51.2c6.4 6.4 14.4 9.6 22.4 9.6 9.6 0 17.6-3.2 24-9.6l486.4-478.4c8-8 11.2-14.4 11.2-24z" />
<glyph unicode="&#xe907;" glyph-name="arrow_up" d="M512 752c9.6 0 16-3.2 24-11.2l478.4-486.4c6.4-6.4 9.6-14.4 9.6-24s-3.2-17.6-9.6-24l-51.2-52.8c-6.4-6.4-14.4-11.2-24-11.2s-16 3.2-24 11.2l-403.2 411.2-403.2-409.6c-6.4-8-14.4-11.2-24-11.2s-16 3.2-24 11.2l-51.2 52.8c-6.4 6.4-9.6 14.4-9.6 22.4 0 9.6 3.2 17.6 9.6 24l478.4 486.4c8 8 14.4 11.2 24 11.2z" />
<glyph unicode="&#xe908;" glyph-name="close_fat" d="M660.8 448l331.2 331.2c20.8 20.8 32 46.4 32 75.2s-11.2 54.4-30.4 75.2c-20.8 19.2-46.4 30.4-75.2 30.4s-54.4-11.2-75.2-30.4l-331.2-332.8-331.2 332.8c-20.8 19.2-46.4 30.4-75.2 30.4s-54.4-11.2-75.2-30.4-30.4-46.4-30.4-75.2c0-28.8 11.2-54.4 30.4-75.2l332.8-331.2-332.8-331.2c-19.2-20.8-30.4-46.4-30.4-75.2s11.2-54.4 30.4-75.2c20.8-19.2 46.4-30.4 75.2-30.4s54.4 11.2 75.2 30.4l331.2 332.8 331.2-331.2c19.2-19.2 46.4-30.4 75.2-30.4s54.4 11.2 75.2 30.4c19.2 19.2 30.4 46.4 30.4 75.2s-11.2 54.4-30.4 75.2l-332.8 329.6z" />
<glyph unicode="&#xe909;" glyph-name="close" d="M643.2 448l353.6 353.6c36.8 36.8 36.8 96 0 131.2-36.8 36.8-96 36.8-131.2 0l-353.6-353.6-353.6 353.6c-36.8 36.8-96 36.8-131.2 0-36.8-36.8-36.8-96 0-131.2l353.6-353.6-353.6-353.6c-36.8-36.8-36.8-96 0-131.2 17.6-17.6 41.6-27.2 65.6-27.2s48 9.6 65.6 27.2l353.6 353.6 353.6-353.6c17.6-17.6 41.6-27.2 65.6-27.2s48 9.6 65.6 27.2c36.8 36.8 36.8 96 0 131.2l-353.6 353.6z" />
<glyph unicode="&#xe90a;" glyph-name="download" d="M284.8 494.4c-16-14.4-16-40 0-56 0 0 0 0 0 0v0l212.8-211.2c8-8 17.6-11.2 28.8-11.2s20.8 4.8 28.8 11.2l212.8 209.6c16 14.4 16 40 0 56 0 0 0 0 0 0v0c-8 8-17.6 11.2-28.8 12.8-11.2 0-20.8-4.8-28.8-12.8l-144-142.4v521.6c0 22.4-17.6 40-40 40s-40-17.6-40-40v0-521.6l-144 142.4c-16 16-41.6 16-57.6 1.6v0zM990.4-16h-956.8c-19.2 0-33.6 14.4-33.6 33.6s14.4 33.6 33.6 33.6c0 0 0 0 0 0h956.8c19.2 0 33.6-14.4 33.6-33.6s-14.4-33.6-33.6-33.6c0 0 0 0 0 0z" />
<glyph unicode="&#xe90b;" glyph-name="email" d="M1006.4 192v0h14.4c0 0 1.6 1.6 1.6 1.6v0 0c0 0 1.6 1.6 1.6 1.6v6.4c0 0 0 0 0 1.6v1.6c0 0 0 0 0 1.6 0 0 0 0 0 1.6 0 0 0 0 0 1.6s0 0 0 1.6 0 1.6 0 1.6c0 0 0 0 0 1.6 0 0 0 1.6 0 1.6v465.6c0 12.8-9.6 22.4-22.4 22.4h-723.2l-3.2-3.2v-6.4c0 0 0 0 0-1.6 0 0 0 0 0-1.6 0 0 0 0 0-1.6 0 0 0 0 0-1.6 0 0 0 0 0-1.6 0 0 0 0 0-1.6s0 0 0-1.6 0-1.6 0-1.6 0 0 0 0v-134.4c0-12.8 9.6-22.4 22.4-22.4s22.4 9.6 22.4 22.4v86.4l196.8-172.8c-1.6 0-1.6-1.6-3.2-3.2l-195.2-192v144c0 12.8-9.6 22.4-22.4 22.4s-22.4-9.6-22.4-22.4c0 0 0 0 0 0v-25.6h-115.2c-4.8 0-14.4-9.6-14.4-22.4s9.6-22.4 22.4-22.4c0 0 0 0 0 0h115.2v-126.4c0-12.8 9.6-22.4 22.4-22.4h699.2c0 0 1.6 0 1.6 0l1.6 1.6zM979.2 267.2l-195.2 192 145.6 121.6c9.6 8 11.2 22.4 3.2 30.4-8 9.6-22.4 9.6-32 3.2v0l-248-208-291.2 254.4h619.2l-1.6-393.6zM550.4 427.2c1.6 1.6 3.2 3.2 3.2 4.8l83.2-72c8-8 20.8-8 28.8 0l84.8 70.4c0-1.6 1.6-1.6 3.2-3.2l195.2-192h-592l193.6 192zM22.4 454.4h374.4c12.8 0 22.4 9.6 22.4 22.4s-9.6 22.4-22.4 22.4c0 0 0 0 0 0h-374.4c-12.8 0-22.4-9.6-22.4-22.4s9.6-22.4 22.4-22.4c0 0 0 0 0 0zM60.8 576h168c12.8 0 22.4 9.6 22.4 22.4s-9.6 22.4-22.4 22.4h-168c-12.8 0-22.4-9.6-22.4-22.4s9.6-22.4 22.4-22.4c0 0 0 0 0 0zM185.6 291.2h-163.2c-12.8 0-22.4-9.6-22.4-22.4s9.6-22.4 22.4-22.4c0 0 0 0 0 0h163.2c12.8 0 22.4 9.6 22.4 22.4s-11.2 22.4-22.4 22.4c0 0 0 0 0 0v0z" />
<glyph unicode="&#xe90c;" glyph-name="exit_fullscreen" d="M1024 598.4c0-27.2-22.4-49.6-48-49.6h-292.8c-27.2 0-48 22.4-48 49.6 0 1.6 0 3.2 1.6 4.8v288c0 27.2 22.4 49.6 48 49.6s48-22.4 48-49.6v-243.2h243.2c25.6 0 48-22.4 48-49.6zM48 251.2h244.8v-251.2c0-27.2 22.4-49.6 48-49.6s48 22.4 48 49.6v291.2c0 3.2-1.6 4.8-1.6 6.4s0 1.6 0 3.2c0 27.2-22.4 49.6-48 49.6h-291.2c-27.2 0-48-22.4-48-49.6s22.4-49.6 48-49.6zM0 598.4c0-27.2 22.4-49.6 48-49.6h292.8c27.2 0 48 22.4 48 49.6 0 1.6 0 3.2-1.6 4.8v288c0 27.2-22.4 49.6-48 49.6s-48-22.4-48-49.6v-243.2h-243.2c-25.6 0-48-22.4-48-49.6zM1024 300.8c0 27.2-22.4 49.6-48 49.6h-292.8c-27.2 0-48-22.4-48-49.6 0-1.6 0-1.6 0-3.2 0-3.2-1.6-4.8-1.6-6.4v-291.2c0-27.2 22.4-49.6 48-49.6s48 22.4 48 49.6v251.2h246.4c25.6 0 48 22.4 48 49.6z" />
<glyph unicode="&#xe90d;" glyph-name="eye_hide" d="M990.4 440c-9.6 0-17.6-4.8-24-11.2-8-9.6-17.6-20.8-28.8-33.6-12.8-14.4-12.8-35.2 0-49.6 11.2-12.8 30.4-14.4 43.2-3.2 1.6 1.6 3.2 1.6 3.2 3.2 11.2 11.2 20.8 22.4 30.4 35.2 12.8 14.4 11.2 35.2-1.6 49.6-4.8 6.4-12.8 11.2-22.4 9.6zM928 616c-9.6 0-17.6-4.8-24-11.2-12.8-14.4-11.2-35.2 1.6-49.6 11.2-11.2 22.4-20.8 30.4-30.4 11.2-12.8 30.4-14.4 43.2-3.2 1.6 1.6 3.2 1.6 3.2 3.2 12.8 14.4 12.8 35.2 0 49.6-11.2 9.6-22.4 20.8-32 33.6-8 4.8-14.4 8-22.4 8v0zM750.4 750.4c-12.8 0-24-8-28.8-19.2-8-17.6-1.6-38.4 16-48 12.8-6.4 24-14.4 36.8-20.8 16-9.6 36.8-4.8 46.4 11.2 8 17.6 3.2 38.4-11.2 49.6-12.8 9.6-25.6 16-38.4 24-8 1.6-14.4 3.2-20.8 3.2v0zM548.8 808h-6.4c-19.2-1.6-32-16-32-35.2 0-17.6 14.4-33.6 32-35.2h4.8c11.2 0 24 0 35.2-1.6 17.6-1.6 33.6 11.2 35.2 27.2 0 1.6 0 1.6 0 3.2 3.2 17.6-9.6 35.2-27.2 38.4 0 0 0 0-1.6 0-14.4 0-27.2 3.2-40 3.2v0zM524.8 276.8c-84.8 0-153.6 68.8-155.2 155.2 0 28.8 8 56 22.4 81.6l216-214.4c-25.6-14.4-54.4-22.4-83.2-22.4zM297.6 667.2l72-73.6c-1.6-1.6-3.2-1.6-4.8-3.2-41.6-43.2-64-99.2-64-158.4 0-123.2 100.8-222.4 224-220.8 0 0 0 0 0 0 57.6 0 113.6 22.4 155.2 64l28.8-30.4c0-4.8 1.6-9.6 4.8-14.4-54.4-25.6-113.6-40-172.8-41.6-219.2 1.6-409.6 211.2-464 280 64 75.2 137.6 142.4 220.8 198.4v0zM315.2 747.2l-166.4 171.2c-4.8 6.4-14.4 11.2-24 9.6-9.6 0-17.6-3.2-25.6-9.6-12.8-14.4-12.8-35.2 0-49.6l147.2-152c-91.2-62.4-172.8-140.8-240-228.8-9.6-12.8-9.6-30.4 0-43.2s241.6-326.4 536-326.4c80 1.6 156.8 22.4 227.2 60.8h3.2l193.6-200c11.2-12.8 32-14.4 44.8-3.2 1.6 1.6 1.6 1.6 3.2 3.2 12.8 14.4 12.8 35.2 0 49.6l-180.8 184 14.4 9.6c16 11.2 19.2 33.6 8 49.6-6.4 9.6-17.6 14.4-28.8 14.4-6.4 0-12.8-1.6-17.6-6.4-8-4.8-14.4-9.6-22.4-14.4l-329.6 340.8c-1.6 3.2-3.2 4.8-6.4 6.4l-80 83.2c4.8 1.6 9.6 4.8 14.4 6.4 17.6 8 25.6 30.4 17.6 48-6.4 11.2-17.6 19.2-30.4 19.2-4.8 0-8 0-12.8-1.6-11.2-6.4-25.6-12.8-36.8-19.2-1.6-3.2-4.8-3.2-8-1.6v0z" />
<glyph unicode="&#xe90e;" glyph-name="eye" d="M512 752c-273.6 0-488-273.6-497.6-284.8l-14.4-19.2 14.4-19.2c9.6-11.2 224-284.8 497.6-284.8s488 273.6 497.6 284.8l14.4 19.2-14.4 19.2c-9.6 11.2-224 284.8-497.6 284.8zM512 206.4c-203.2 0-377.6 180.8-430.4 241.6 52.8 59.2 227.2 241.6 430.4 241.6s377.6-180.8 430.4-241.6c-52.8-60.8-228.8-241.6-430.4-241.6zM512 668.8c-123.2 0-222.4-99.2-222.4-220.8s99.2-220.8 222.4-220.8 222.4 99.2 222.4 220.8v0c0 121.6-99.2 219.2-222.4 220.8zM512 291.2c-88 0-160 70.4-160 156.8s72 156.8 160 156.8 160-70.4 160-156.8v0c0-86.4-72-156.8-160-156.8zM587.2 521.6c41.6-41.6 41.6-107.2 0-148.8s-108.8-41.6-150.4 0c-41.6 41.6-41.6 107.2 0 148.8 0 0 0 0 0 0l75.2-73.6 75.2 73.6z" />
<glyph unicode="&#xe90f;" glyph-name="fb_round" d="M592-64v360h120l22.4 148.8h-142.4v96c0 40 19.2 80 83.2 80h64v126.4c0 0-59.2 9.6-115.2 9.6-115.2 1.6-192-68.8-192-198.4v-113.6h-129.6v-148.8h129.6v-360c-244.8 38.4-432 251.2-432 508.8 0 284.8 228.8 515.2 512 515.2s512-230.4 512-515.2c0-257.6-187.2-470.4-432-508.8z" />
<glyph unicode="&#xe910;" glyph-name="fb" d="M784 952v-163.2h-99.2c-36.8 0-60.8-8-73.6-22.4s-19.2-36.8-19.2-67.2v-116.8h184l-24-182.4h-160v-464h-192v467.2h-160v182.4h160v134.4c0 76.8 22.4 136 65.6 177.6 44.8 41.6 102.4 62.4 174.4 62.4 62.4 0 110.4-3.2 144-8z" />
<glyph unicode="&#xe911;" glyph-name="fullscreen_menu" d="M836.8 849.6h-782.4c-30.4 0-54.4 24-54.4 56s24 54.4 54.4 54.4h780.8c30.4 0 54.4-24 54.4-54.4s-22.4-56-52.8-56zM891.2 600c0 30.4-24 54.4-54.4 54.4h-782.4c-30.4 0-54.4-24-54.4-54.4s24-54.4 54.4-54.4h780.8c32 0 56 24 56 54.4zM668.8-51.2c27.2-16 60.8-16 88 0l222.4 128c27.2 16 44.8 44.8 44.8 76.8s-16 60.8-44.8 76.8l-222.4 128c-27.2 16-60.8 16-88 0s-44.8-44.8-44.8-76.8v-256c1.6-33.6 17.6-62.4 44.8-76.8zM580.8 280c0 25.6 8 49.6 20.8 70.4h-547.2c-30.4 0-54.4-24-54.4-54.4 0-32 24-56 54.4-56h526.4v40z" />
<glyph unicode="&#xe912;" glyph-name="fullscreen" d="M633.6 892.8c0 27.2 22.4 49.6 48 49.6h294.4c27.2 0 48-22.4 48-49.6 0-1.6 0-3.2-1.6-4.8v-288c0-27.2-22.4-49.6-48-49.6s-48 22.4-48 49.6v243.2h-243.2c-27.2 0-49.6 22.4-49.6 49.6zM342.4 49.6h-244.8v251.2c0 27.2-22.4 49.6-48 49.6s-48-22.4-48-49.6v-292.8c0-3.2 1.6-4.8 1.6-6.4s0-1.6 0-3.2c0-27.2 22.4-49.6 48-49.6h292.8c27.2 0 48 22.4 48 49.6-1.6 28.8-22.4 51.2-49.6 51.2zM390.4 892.8c0 27.2-22.4 49.6-48 49.6h-294.4c-27.2 0-48-22.4-48-49.6 0-1.6 0-3.2 1.6-4.8v-288c0-27.2 22.4-49.6 48-49.6s48 22.4 48 49.6v243.2h243.2c27.2 0 49.6 22.4 49.6 49.6zM633.6 0c0-27.2 22.4-49.6 48-49.6h292.8c27.2 0 48 22.4 48 49.6 0 1.6 0 1.6 0 3.2 0 3.2 1.6 4.8 1.6 6.4v291.2c0 27.2-22.4 49.6-48 49.6s-48-22.4-48-49.6v-252.8h-246.4c-27.2 1.6-48-20.8-48-48z" />
<glyph unicode="&#xe913;" glyph-name="info" d="M512 897.6c-97.6 0-192-30.4-267.2-84.8-83.2-59.2-140.8-147.2-169.6-252.8-35.2-134.4-6.4-275.2 78.4-385.6 86.4-112 216-176 356.8-176s272 64 356.8 176c84.8 110.4 113.6 251.2 78.4 385.6-27.2 105.6-84.8 193.6-168 252.8-73.6 54.4-168 84.8-265.6 84.8zM512 960c214.4 0 430.4-128 496-384v0c83.2-323.2-161.6-640-496-640v0c-334.4 0-579.2 315.2-496 640v0c65.6 256 281.6 384 496 384zM470.4 260.8c0 28.8 22.4 51.2 52.8 51.2s51.2-22.4 51.2-51.2-22.4-51.2-51.2-51.2c-30.4 0-52.8 22.4-52.8 51.2zM475.2 676.8h97.6l-16-308.8h-65.6l-16 308.8z" />
<glyph unicode="&#xe914;" glyph-name="instagram" d="M512 867.2c136 0 153.6 0 206.4-3.2 49.6-1.6 76.8-11.2 94.4-17.6 24-9.6 41.6-20.8 59.2-38.4s28.8-35.2 38.4-59.2c6.4-17.6 16-44.8 17.6-94.4 3.2-54.4 3.2-70.4 3.2-206.4s0-153.6-3.2-206.4c-1.6-49.6-11.2-76.8-17.6-94.4-9.6-24-20.8-41.6-38.4-59.2s-35.2-28.8-59.2-38.4c-17.6-6.4-44.8-16-94.4-17.6-54.4-3.2-70.4-3.2-206.4-3.2s-153.6 0-206.4 3.2c-49.6 1.6-76.8 11.2-94.4 17.6-24 9.6-41.6 20.8-59.2 38.4s-28.8 35.2-38.4 59.2c-6.4 17.6-16 44.8-17.6 94.4-3.2 52.8-3.2 70.4-3.2 206.4s0 153.6 3.2 206.4c1.6 49.6 11.2 76.8 17.6 94.4 9.6 24 20.8 41.6 38.4 59.2s35.2 28.8 59.2 38.4c17.6 6.4 44.8 16 94.4 17.6 52.8 3.2 70.4 3.2 206.4 3.2zM512 960c-139.2 0-156.8 0-211.2-3.2s-91.2-11.2-124.8-24c-33.6-12.8-62.4-30.4-89.6-59.2-28.8-27.2-46.4-56-59.2-89.6-12.8-32-20.8-70.4-24-124.8s-3.2-72-3.2-211.2c0-139.2 0-156.8 3.2-211.2s11.2-91.2 24-124.8c12.8-33.6 30.4-62.4 59.2-91.2s57.6-46.4 91.2-59.2c32-12.8 70.4-20.8 124.8-24 52.8-1.6 70.4-1.6 209.6-1.6s156.8 0 211.2 3.2c54.4 3.2 91.2 11.2 124.8 24s62.4 30.4 91.2 59.2c28.8 28.8 46.4 57.6 59.2 91.2 12.8 32 20.8 70.4 24 124.8 1.6 52.8 1.6 70.4 1.6 209.6s0 156.8-3.2 211.2c-3.2 54.4-11.2 91.2-24 124.8s-30.4 62.4-59.2 91.2c-28.8 28.8-57.6 46.4-91.2 59.2-32 12.8-70.4 20.8-124.8 24-52.8 1.6-70.4 1.6-209.6 1.6v0zM512 710.4c-145.6 0-262.4-118.4-262.4-262.4s116.8-262.4 262.4-262.4 262.4 116.8 262.4 262.4-116.8 262.4-262.4 262.4zM512 276.8c-94.4 0-171.2 76.8-171.2 171.2s76.8 171.2 171.2 171.2 171.2-76.8 171.2-171.2-76.8-171.2-171.2-171.2zM785.6 782.4c-33.6 0-60.8-27.2-60.8-60.8s27.2-60.8 60.8-60.8 60.8 27.2 60.8 60.8-27.2 60.8-60.8 60.8z" />
<glyph unicode="&#xe915;" glyph-name="linkedin" d="M246.4 816c0-32-11.2-59.2-33.6-80s-52.8-32-89.6-32h-1.6c-36.8 0-65.6 11.2-88 32-22.4 22.4-33.6 48-33.6 80s11.2 59.2 33.6 80c22.4 20.8 52.8 32 89.6 32s67.2-11.2 88-32c24-20.8 35.2-48 35.2-80zM232 616v-648h-219.2v648h219.2zM1024 339.2v-371.2h-219.2v347.2c0 46.4-9.6 81.6-27.2 107.2s-46.4 38.4-84.8 38.4c-28.8 0-51.2-8-70.4-22.4s-33.6-33.6-41.6-56c-4.8-12.8-8-30.4-8-52.8v-361.6h-219.2c1.6 174.4 1.6 315.2 1.6 422.4s0 172.8 0 193.6v32h219.2v-94.4h-1.6c9.6 14.4 17.6 25.6 27.2 36.8s22.4 22.4 38.4 33.6c16 12.8 35.2 22.4 57.6 28.8s48 9.6 76.8 9.6c75.2 0 137.6-24 184-73.6 44.8-49.6 67.2-121.6 67.2-217.6z" />
<glyph unicode="&#xe916;" glyph-name="location" d="M1022.4-35.2l-206.4 585.6c-3.2 9.6-11.2 14.4-19.2 16h-96c22.4 46.4 36.8 96 41.6 148.8 1.6 131.2-104 241.6-236.8 244.8-132.8-3.2-238.4-113.6-235.2-246.4 4.8-51.2 19.2-100.8 41.6-148.8h-83.2c-9.6 0-17.6-6.4-19.2-16l-208-585.6c-4.8-11.2 1.6-22.4 12.8-27.2 1.6 0 4.8 0 6.4 0h982.4c11.2 0 20.8 8 20.8 19.2 0 3.2 0 6.4-1.6 9.6v0zM505.6 916.8c108.8-3.2 195.2-94.4 192-203.2 0-118.4-166.4-380.8-192-425.6-65.6 110.4-192 337.6-192 425.6-3.2 108.8 83.2 200 192 203.2zM51.2-20.8l192 542.4h88c62.4-134.4 174.4-315.2 174.4-315.2s171.2 305.6 176 315.2h99.2l192-542.4h-921.6zM369.6 166.4h286.4v-43.2h-286.4v43.2zM606.4 734.4c1.6 56-43.2 100.8-99.2 102.4s-100.8-43.2-102.4-97.6c0-1.6 0-3.2 0-3.2 1.6-56 46.4-99.2 102.4-97.6 54.4-1.6 97.6 41.6 99.2 96zM448 736c0 32 25.6 56 56 56s56-25.6 56-56-25.6-56-56-56v0c-30.4 0-54.4 24-56 56z" />
<glyph unicode="&#xe917;" glyph-name="logout" d="M993.6 80c-8 0-17.6 3.2-24 11.2-121.6 142.4-291.2 212.8-534.4 217.6v-153.6c0-11.2-6.4-22.4-17.6-27.2s-24-3.2-32 4.8l-374.4 315.2c-8 4.8-11.2 12.8-11.2 22.4s3.2 17.6 11.2 24l374.4 315.2c9.6 8 22.4 9.6 32 4.8 11.2-4.8 17.6-16 17.6-27.2v-153.6c419.2-60.8 547.2-347.2 587.2-515.2 3.2-14.4-3.2-27.2-16-33.6-3.2-3.2-8-4.8-12.8-4.8zM404.8 369.6c222.4 0 392-48 521.6-152-68.8 160-216 320-524.8 356.8-16 1.6-27.2 14.4-27.2 30.4v115.2l-296-249.6 296-249.6v118.4c0 17.6 14.4 30.4 30.4 30.4z" />
<glyph unicode="&#xe918;" glyph-name="menu" d="M966.4 795.2h-908.8c-32 0-57.6 25.6-57.6 57.6s25.6 59.2 57.6 59.2h908.8c32 0 57.6-25.6 57.6-57.6s-25.6-59.2-57.6-59.2zM1024 448c0 32-25.6 57.6-57.6 57.6h-908.8c-32 0-57.6-25.6-57.6-57.6s25.6-57.6 57.6-57.6h908.8c32 0 57.6 25.6 57.6 57.6zM1024 41.6c0 32-25.6 57.6-57.6 57.6h-908.8c-32 0-57.6-25.6-57.6-57.6s25.6-57.6 57.6-57.6h908.8c32 0 57.6 25.6 57.6 57.6z" />
<glyph unicode="&#xe919;" glyph-name="minus" d="M0 544h1024v-192h-1024v192z" />
<glyph unicode="&#xe91a;" glyph-name="next" d="M128 100.8c-12.8-8-27.2-11.2-43.2-11.2-46.4 0-84.8 38.4-84.8 86.4v508.8c0 14.4 3.2 30.4 11.2 43.2 24 41.6 75.2 56 116.8 32l440-254.4c12.8-8 24-19.2 32-32 24-41.6 9.6-94.4-32-118.4l-440-254.4zM939.2 0c48 0 84.8 38.4 84.8 86.4v723.2c0 48-38.4 86.4-84.8 86.4s-84.8-38.4-84.8-86.4v-723.2c-1.6-48 36.8-86.4 84.8-86.4z" />
<glyph unicode="&#xe91b;" glyph-name="notifications" d="M777.6 180.8l-25.6 25.6v318.4c0 113.6-75.2 208-185.6 235.2l-54.4 12.8-54.4-12.8c-112-27.2-185.6-121.6-185.6-235.2v-318.4l-25.6-25.6h531.2zM512-64c-56 0-102.4 46.4-102.4 102.4h203.2c1.6-56-44.8-102.4-100.8-102.4zM944 89.6h-864v51.2l102.4 102.4v281.6c0 158.4 105.6 286.4 252.8 323.2v35.2c0 41.6 36.8 76.8 76.8 76.8s76.8-35.2 76.8-76.8v-35.2c147.2-36.8 252.8-164.8 252.8-323.2v-281.6l102.4-102.4v-51.2z" />
<glyph unicode="&#xe91c;" glyph-name="package" d="M992 718.4c0 3.2-1.6 8-3.2 11.2-3.2 6.4-9.6 12.8-17.6 14.4l-448 214.4c-8 3.2-16 3.2-22.4 0l-454.4-216c-8-4.8-14.4-12.8-14.4-22.4v-542.4c0-9.6 6.4-19.2 14.4-24l452.8-216c0 0 0 0 0 0s1.6 0 1.6-1.6c0 0 0 0 1.6 0h1.6c0 0 0 0 0 0s1.6 0 1.6 0v0c1.6 0 1.6 0 3.2 0s1.6 0 3.2 0v0c0 0 1.6 0 1.6 0s0 0 0 0h1.6c0 0 0 0 1.6 0 0 0 1.6 0 1.6 1.6 0 0 0 0 0 0l454.4 216c9.6 4.8 14.4 12.8 14.4 24l4.8 540.8c0 0 0 0 0 0zM510.4 905.6l392-187.2-144-68.8-392 187.2 144 68.8zM510.4 531.2l-392 187.2 187.2 89.6 392-187.2-187.2-89.6zM84.8 676.8l400-190.4v-483.2l-400 190.4v483.2zM537.6 3.2v483.2l187.2 89.6v-126.4c-1.6-14.4 8-27.2 24-28.8 14.4-1.6 27.2 8 28.8 22.4 0 1.6 0 4.8 0 6.4v152l160 76.8v-483.2l-400-192z" />
<glyph unicode="&#xe91d;" glyph-name="pause" d="M240-64c-52.8 0-96 44.8-96 99.2v825.6c0 54.4 43.2 99.2 96 99.2s96-44.8 96-99.2v-827.2c0-52.8-43.2-97.6-96-97.6zM880 32v832c0 52.8-43.2 96-96 96s-96-43.2-96-96v-832c0-52.8 43.2-96 96-96s96 43.2 96 96z" />
<glyph unicode="&#xe91e;" glyph-name="payment_history" d="M961.6 568h-36.8l76.8 76.8c24 24 24 62.4 1.6 88 24 24 22.4 64-1.6 88l-73.6 73.6c-24 24-64 24-89.6 0l-328-326.4h-448c-35.2 0-62.4-28.8-62.4-62.4v-457.6c0-35.2 28.8-64 62.4-64h897.6c35.2 0 62.4 28.8 62.4 62.4v457.6c1.6 35.2-27.2 64-60.8 64zM971.2 675.2l-108.8-108.8h-22.4l132.8 132.8c4.8-6.4 4.8-16-1.6-24v0zM416 390.4l80-80-112-32 32 112zM539.2 332.8l-100.8 99.2 336 334.4 100.8-100.8-336-332.8zM870.4 862.4c6.4 6.4 19.2 6.4 25.6 0 0 0 0 0 0 0l75.2-75.2c6.4-6.4 6.4-19.2 0-25.6 0 0 0 0 0 0l-64-62.4-100.8 100.8 64 62.4zM979.2 46.4c0-9.6-8-17.6-17.6-17.6h-899.2c-9.6 0-17.6 8-17.6 17.6v457.6c0 9.6 8 17.6 17.6 17.6h403.2l-76.8-76.8c-3.2-3.2-4.8-6.4-6.4-9.6l-52.8-184c-3.2-11.2 3.2-24 16-27.2 4.8-1.6 8-1.6 12.8 0l185.6 54.4c3.2 1.6 6.4 3.2 9.6 6.4l240 240h166.4c9.6 0 17.6-8 17.6-17.6l1.6-460.8zM124.8 387.2h134.4c12.8 0 22.4 9.6 22.4 22.4s-9.6 22.4-22.4 22.4h-134.4c-12.8 0-22.4-9.6-22.4-22.4s9.6-22.4 22.4-22.4zM889.6 158.4h-764.8c-12.8 0-22.4-9.6-22.4-22.4s9.6-22.4 22.4-22.4h764.8c12.8 0 22.4 9.6 22.4 22.4s-9.6 22.4-22.4 22.4zM889.6 296h-156.8c-12.8 0-22.4-9.6-22.4-22.4s9.6-22.4 22.4-22.4h156.8c12.8 0 22.4 9.6 22.4 22.4 0 11.2-9.6 22.4-22.4 22.4v0z" />
<glyph unicode="&#xe91f;" glyph-name="phone" d="M809.6 326.4c-19.2 20.8-44.8 33.6-73.6 33.6s-54.4-12.8-73.6-33.6l-68.8-68.8c-6.4 3.2-11.2 6.4-16 8-8 3.2-14.4 8-20.8 11.2-67.2 43.2-128 99.2-179.2 161.6-24 28.8-43.2 59.2-59.2 92.8 17.6 16 33.6 33.6 49.6 49.6 6.4 6.4 12.8 12.8 17.6 17.6 41.6 35.2 46.4 99.2 9.6 139.2-3.2 3.2-6.4 6.4-9.6 9.6l-59.2 59.2c-6.4 6.4-14.4 12.8-20.8 20.8-12.8 12.8-27.2 27.2-40 40-19.2 19.2-44.8 32-72 32s-54.4-11.2-73.6-32v0l-72-73.6c-27.2-25.6-44.8-62.4-48-99.2-3.2-54.4 6.4-108.8 27.2-160 40-102.4 96-195.2 166.4-276.8 92.8-112 208-201.6 339.2-265.6 59.2-30.4 124.8-49.6 190.4-56 4.8 0 9.6 0 14.4 0 48-1.6 92.8 19.2 124.8 52.8 0 0 0 0 1.6 1.6 11.2 14.4 24 27.2 38.4 40 9.6 8 19.2 17.6 28.8 27.2 20.8 19.2 32 46.4 32 75.2s-12.8 54.4-33.6 73.6l-120 120zM888 97.6v0c-8-9.6-17.6-17.6-27.2-25.6-14.4-14.4-28.8-28.8-41.6-43.2-20.8-22.4-51.2-35.2-81.6-33.6-3.2 0-6.4 0-9.6 0-59.2 6.4-116.8 24-169.6 51.2-123.2 59.2-232 144-320 249.6-67.2 76.8-120 164.8-155.2 259.2-17.6 43.2-27.2 88-24 134.4 1.6 24 12.8 46.4 30.4 64l73.6 73.6c8 9.6 20.8 14.4 33.6 16 12.8 0 24-6.4 32-14.4v0c12.8-12.8 25.6-25.6 38.4-38.4 6.4-6.4 14.4-14.4 20.8-20.8l59.2-59.2c19.2-12.8 22.4-38.4 9.6-57.6-3.2-3.2-6.4-6.4-9.6-9.6-6.4-6.4-12.8-12.8-19.2-19.2-17.6-19.2-35.2-35.2-54.4-52.8 0 0-1.6 0-1.6-1.6-14.4-12.8-17.6-32-11.2-49.6v-1.6c17.6-41.6 41.6-80 70.4-113.6v0c54.4-68.8 118.4-128 192-174.4 8-4.8 17.6-9.6 27.2-14.4 8-3.2 14.4-8 20.8-11.2 1.6 0 1.6-1.6 3.2-1.6 6.4-3.2 14.4-4.8 20.8-4.8 12.8 0 24 6.4 33.6 14.4l73.6 73.6c8 9.6 20.8 16 32 16 12.8 0 24-6.4 30.4-16v0l120-118.4c19.2-14.4 22.4-41.6 8-59.2 0-4.8-3.2-8-4.8-11.2v0zM553.6 716.8c116.8-20.8 206.4-110.4 227.2-227.2 1.6-14.4 14.4-24 28.8-24 1.6 0 3.2 0 4.8 0 16 3.2 27.2 17.6 24 33.6 0 0 0 0 0 0-24 140.8-134.4 249.6-275.2 275.2-16 3.2-30.4-8-33.6-24s8-30.4 24-33.6c0 0 0 0 0 0zM1024 508.8c-40 230.4-220.8 411.2-452.8 451.2-16 3.2-32-6.4-35.2-22.4s6.4-30.4 22.4-35.2c0 0 1.6 0 1.6 0 206.4-35.2 368-196.8 404.8-403.2 1.6-14.4 14.4-24 28.8-24 1.6 0 3.2 0 4.8 0 17.6 1.6 27.2 17.6 25.6 33.6 0-1.6 0 0 0 0z" />
<glyph unicode="&#xe920;" glyph-name="play_round" d="M886.4 552c57.6-35.2 73.6-110.4 38.4-168-9.6-16-22.4-28.8-38.4-38.4l-620.8-390.4c-57.6-35.2-131.2-17.6-168 38.4-11.2 19.2-17.6 41.6-17.6 64v780.8c0 67.2 54.4 121.6 121.6 121.6 22.4 0 44.8-6.4 64-19.2l620.8-388.8z" />
<glyph unicode="&#xe921;" glyph-name="play" d="M936 489.6c22.4-12.8 30.4-41.6 17.6-65.6-4.8-8-9.6-12.8-17.6-17.6l-801.6-464c-22.4-12.8-51.2-4.8-64 17.6-4.8 6.4-6.4 16-6.4 24v928c0 25.6 20.8 48 46.4 48 8 0 16-1.6 24-6.4l801.6-464z" />
<glyph unicode="&#xe922;" glyph-name="plus" d="M1024 377.6h-438.4v-425.6h-148.8v425.6h-436.8v137.6h438.4v428.8h148.8v-428.8h436.8v-137.6z" />
<glyph unicode="&#xe923;" glyph-name="prev" d="M456 356.8c-41.6 24-54.4 76.8-32 118.4 8 12.8 19.2 24 32 32l440 252.8c41.6 24 92.8 9.6 116.8-32 8-12.8 11.2-28.8 11.2-43.2v-508.8c0-48-38.4-86.4-84.8-86.4-14.4 0-30.4 3.2-43.2 11.2l-440 256zM171.2 86.4v723.2c0 48-38.4 86.4-84.8 86.4s-86.4-38.4-86.4-86.4v-723.2c0-48 38.4-86.4 84.8-86.4s86.4 38.4 86.4 86.4z" />
<glyph unicode="&#xe924;" glyph-name="profile_menu" d="M171.2 960c94.4 0 171.2-76.8 171.2-171.2s-76.8-171.2-171.2-171.2-171.2 76.8-171.2 171.2 76.8 171.2 171.2 171.2zM171.2 276.8c94.4 0 171.2-76.8 171.2-171.2s-76.8-169.6-171.2-169.6-171.2 76.8-171.2 171.2 76.8 169.6 171.2 169.6zM852.8 960c94.4 0 171.2-76.8 171.2-171.2s-76.8-171.2-171.2-171.2-171.2 76.8-171.2 171.2 76.8 171.2 171.2 171.2zM852.8 276.8c94.4 0 171.2-76.8 171.2-171.2s-76.8-169.6-171.2-169.6-171.2 76.8-171.2 171.2 76.8 169.6 171.2 169.6z" />
<glyph unicode="&#xe925;" glyph-name="report" d="M937.6 398.4c-33.6 80-70.4 156.8-108.8 238.4 38.4 73.6 75.2 139.2 108.8 198.4 11.2 20.8 4.8 46.4-16 59.2-3.2 1.6-6.4 3.2-8 3.2-57.6 17.6-116.8 25.6-176 24-78.4-3.2-155.2-9.6-232-24-72-11.2-145.6-19.2-217.6-20.8-40 0-81.6 3.2-121.6 12.8v27.2c0 24-19.2 43.2-43.2 43.2s-43.2-19.2-43.2-43.2v-939.2c0-22.4 19.2-41.6 43.2-41.6s43.2 19.2 43.2 43.2c0 0 0 0 0 0v342.4c40-8 80-11.2 121.6-11.2 76.8 1.6 155.2 9.6 230.4 22.4 72 12.8 145.6 19.2 217.6 22.4 51.2 0 102.4-6.4 152-20.8 24-6.4 48 8 54.4 30.4 3.2 12.8 1.6 24-4.8 33.6zM736 441.6c-76.8-1.6-155.2-9.6-230.4-22.4-72-12.8-145.6-19.2-217.6-22.4-40 0-81.6 3.2-121.6 12.8v392c40-8 80-11.2 121.6-11.2 76.8 1.6 155.2 9.6 230.4 22.4 72 12.8 145.6 19.2 217.6 22.4 33.6 0 65.6-3.2 99.2-8-28.8-51.2-59.2-108.8-91.2-171.2-6.4-11.2-6.4-25.6 0-38.4 30.4-62.4 57.6-123.2 84.8-184-32 6.4-62.4 8-92.8 8z" />
<glyph unicode="&#xe926;" glyph-name="settings" d="M512 660.8c0 0 0 0 0 0-107.2 0-193.6-86.4-193.6-195.2 0-52.8 19.2-102.4 54.4-139.2 36.8-36.8 84.8-59.2 136-59.2 0 0 1.6 0 1.6 0 51.2 0 99.2 19.2 136 56s57.6 86.4 57.6 137.6c0 52.8-19.2 102.4-54.4 139.2-35.2 38.4-83.2 59.2-137.6 60.8zM595.2 377.6c-22.4-22.4-52.8-35.2-84.8-35.2s-62.4 12.8-84.8 36.8c-22.4 24-35.2 54.4-33.6 86.4 0 0 0 0 0 0 0 65.6 54.4 120 120 120 0 0 0 0 0 0 65.6 0 120-56 118.4-123.2 1.6-32-11.2-62.4-35.2-84.8zM952 339.2l-57.6 54.4c8 40 8 80 3.2 121.6l59.2 56c33.6 22.4 44.8 67.2 24 102.4l-49.6 84.8c-20.8 35.2-62.4 48-97.6 30.4l-76.8-19.2c-32 27.2-68.8 48-108.8 62.4l-12.8 56c-1.6 19.2-9.6 36.8-22.4 49.6-12.8 14.4-32 24-52.8 22.4h-97.6c-17.6 1.6-40-8-54.4-22.4-12.8-12.8-20.8-30.4-22.4-48l-16-59.2c-33.6-12.8-65.6-32-94.4-54.4l-89.6 24c-36.8 16-78.4 0-97.6-35.2l-41.6-83.2c-1.6-1.6-1.6-3.2-3.2-4.8-17.6-36.8-4.8-80 28.8-100.8l56-51.2c-6.4-40-6.4-81.6 0-121.6l-60.8-57.6c-16-9.6-27.2-25.6-32-44.8s-1.6-40 8-57.6l49.6-84.8c20.8-33.6 62.4-46.4 97.6-30.4l92.8 22.4c25.6-19.2 54.4-35.2 84.8-48l22.4-94.4c1.6-19.2 9.6-36.8 22.4-49.6 14.4-14.4 33.6-22.4 52.8-22.4 0 0 0 0 0 0h97.6c0 0 0 0 0 0 20.8 0 38.4 8 52.8 22.4 12.8 12.8 20.8 30.4 22.4 48l28.8 99.2c24 9.6 46.4 22.4 67.2 36.8l107.2-27.2c36.8-16 80 0 97.6 35.2l44.8 88c9.6 17.6 11.2 38.4 4.8 59.2-9.6 17.6-20.8 32-36.8 41.6zM867.2 185.6c-3.2 1.6-4.8 1.6-8 3.2l-105.6 27.2c-12.8 12.8-33.6 12.8-48 1.6-27.2-22.4-57.6-38.4-91.2-49.6-9.6-3.2-17.6-11.2-20.8-20.8-3.2-8-4.8-19.2-1.6-27.2l-27.2-96c-1.6-3.2-3.2-8-3.2-12.8h-97.6c0 0-1.6 1.6-1.6 1.6 0 3.2 0 4.8-1.6 8l-25.6 107.2c1.6 16-9.6 32-25.6 36.8-36.8 12.8-70.4 32-100.8 56-12.8 11.2-32 11.2-44.8 1.6l-97.6-24c-3.2-1.6-9.6-1.6-12.8-3.2l-46.4 88c3.2 1.6 4.8 3.2 6.4 4.8l78.4 73.6c9.6 9.6 14.4 22.4 11.2 35.2-9.6 43.2-9.6 88-1.6 132.8 3.2 12.8-1.6 25.6-11.2 35.2l-73.6 68.8c-1.6 3.2-4.8 6.4-8 8l48 88c3.2-1.6 4.8-1.6 8-3.2l112-27.2c11.2-3.2 24 0 32 8 30.4 25.6 65.6 46.4 104 59.2 11.2 3.2 20.8 12.8 24 25.6l22.4 81.6c1.6 3.2 3.2 8 3.2 12.8l100.8-1.6c0-3.2 0-6.4 1.6-8l17.6-80c3.2-12.8 12.8-24 25.6-27.2 43.2-14.4 83.2-36.8 116.8-67.2 9.6-8 22.4-11.2 33.6-8l99.2 25.6c3.2 1.6 9.6 1.6 12.8 3.2l46.4-88c-1.6-1.6-4.8-3.2-6.4-4.8l-76.8-72c-9.6-8-14.4-22.4-11.2-33.6 8-44.8 6.4-88-4.8-132.8-3.2-12.8 1.6-27.2 11.2-36.8l76.8-72c3.2-1.6 6.4-6.4 9.6-8l-48-89.6z" />
<glyph unicode="&#xe927;" glyph-name="sound_off" d="M630.4 678.4v-19.2c0-9.6-3.2-17.6-9.6-24s-14.4-9.6-22.4-9.6v0h-1.6c-8 0-16 3.2-22.4 9.6s-9.6 14.4-9.6 24v19.2c0 43.2-8 62.4-16 65.6-17.6 9.6-44.8-1.6-72-27.2l-190.4-182.4h-196.8c-25.6 0-25.6-4.8-25.6-9.6v-163.2c8-1.6 17.6-3.2 25.6-1.6h184l3.2-3.2 184-180.8c38.4-27.2 67.2-36.8 86.4-25.6 9.6 4.8 16 25.6 16 54.4v40c0 19.2 14.4 33.6 33.6 33.6s33.6-14.4 33.6-33.6v-40c6.4-43.2-12.8-88-49.6-113.6-12.8-8-27.2-11.2-41.6-11.2 0 0-1.6 0-1.6 0-44.8 3.2-84.8 20.8-116.8 51.2l-169.6 160h-160c-30.4 0-91.2 0-91.2 68.8v164.8c0 36.8 24 76.8 91.2 76.8h169.6l172.8 164.8c1.6 1.6 4.8 3.2 6.4 6.4 22.4 20.8 68.8 65.6 137.6 32 35.2-19.2 52.8-60.8 52.8-126.4zM796.8 448l75.2 75.2c8 8 8 22.4 0 30.4s-22.4 8-30.4 0l-75.2-75.2-75.2 75.2c-8 8-22.4 8-30.4 0s-8-22.4 0-30.4l75.2-75.2-75.2-75.2c-8-8-8-22.4 0-30.4 4.8-4.8 9.6-6.4 16-6.4s11.2 1.6 16 6.4l75.2 75.2 75.2-75.2c4.8-4.8 9.6-6.4 16-6.4s11.2 1.6 16 6.4c8 8 8 22.4 0 30.4l-78.4 75.2z" />
<glyph unicode="&#xe928;" glyph-name="sound" d="M945.6 249.6c-4.8-6.4-12.8-9.6-20.8-9.6 0 0 0 0 0 0-8 0-14.4 3.2-19.2 8-11.2 11.2-12.8 30.4-1.6 43.2 83.2 88 83.2 224 1.6 312-11.2 11.2-11.2 30.4 0 43.2 6.4 6.4 12.8 9.6 20.8 9.6s14.4-3.2 19.2-9.6c104-110.4 104-288 0-396.8zM704 539.2c-11.2 9.6-25.6 9.6-38.4 0-11.2-11.2-11.2-30.4 0-43.2 24-27.2 24-68.8-1.6-96-9.6-12.8-9.6-30.4 1.6-41.6 4.8-4.8 11.2-8 19.2-8 0 0 1.6 0 1.6 0 8 0 16 3.2 20.8 9.6 44.8 51.2 44.8 129.6-3.2 179.2v0zM577.6 803.2c-67.2 33.6-115.2-9.6-137.6-32-1.6-1.6-4.8-4.8-6.4-6.4l-172.8-163.2h-169.6c-67.2 0-91.2-40-91.2-76.8v-164.8c0-68.8 62.4-68.8 91.2-68.8h156.8l169.6-160c32-30.4 73.6-49.6 116.8-51.2 0 0 1.6 0 1.6 0 14.4 0 28.8 3.2 41.6 11.2 36.8 25.6 56 70.4 49.6 113.6v40c0 19.2-14.4 33.6-33.6 33.6s-33.6-14.4-33.6-33.6v-40c0-28.8-6.4-48-16-54.4-19.2-9.6-48-1.6-86.4 25.6l-182.4 184h-184c-9.6-1.6-17.6 0-25.6 1.6v163.2c0 3.2 0 8 25.6 8h196.8l188.8 182.4c28.8 27.2 56 36.8 72 27.2 8-3.2 16-22.4 16-65.6v-19.2c0-9.6 3.2-17.6 9.6-24s14.4-9.6 22.4-9.6h1.6c8 0 16 3.2 22.4 9.6s9.6 14.4 9.6 24v19.2c0 67.2-17.6 108.8-52.8 126.4zM804.8 603.2c-8 0-14.4-3.2-20.8-9.6-11.2-11.2-11.2-30.4 0-43.2 54.4-57.6 54.4-148.8-1.6-206.4-11.2-12.8-9.6-32 1.6-43.2 4.8-4.8 12.8-8 19.2-8 0 0 0 0 0 0 8 0 16 3.2 20.8 9.6 78.4 81.6 78.4 209.6 0 291.2-4.8 6.4-11.2 9.6-19.2 9.6z" />
<glyph unicode="&#xe929;" glyph-name="star_full" d="M566.4 908.8l124.8-256 280-41.6c49.6-8 70.4-70.4 33.6-105.6l-201.6-198.4 48-281.6c8-51.2-44.8-89.6-89.6-65.6l-249.6 132.8-249.6-132.8c-44.8-24-97.6 14.4-89.6 65.6l48 281.6-201.6 198.4c-36.8 35.2-16 99.2 33.6 105.6l280 41.6 124.8 256c22.4 46.4 86.4 46.4 108.8 0z" />
<glyph unicode="&#xe92a;" glyph-name="star_half" d="M1004.8 505.6l-201.6-198.4 48-281.6c6.4-40-25.6-72-60.8-72-9.6 0-19.2 1.6-28.8 6.4l-249.6 132.8-249.6-132.8c-9.6-4.8-19.2-8-28.8-8-35.2 0-67.2 32-60.8 72l48 281.6-201.6 200c-36.8 35.2-16 99.2 33.6 105.6l280 41.6 124.8 256c11.2 24 32 35.2 54.4 35.2s43.2-11.2 54.4-35.2l124.8-256 280-41.6c51.2-6.4 70.4-68.8 33.6-105.6zM897.6 528l-217.6 32-48 6.4-20.8 43.2-99.2 201.6v-614.4l43.2-22.4 195.2-104-36.8 219.2-8 48 35.2 33.6 156.8 156.8z" />
<glyph unicode="&#xe92b;" glyph-name="stats" d="M512 652.8v0c51.2 0 92.8-40 92.8-91.2v-454.4c0-49.6-41.6-91.2-92.8-91.2v0c-51.2 0-92.8 40-92.8 91.2v454.4c0 49.6 41.6 91.2 92.8 91.2zM92.8 379.2v0c51.2 0 92.8-40 92.8-91.2v-182.4c0-49.6-41.6-91.2-92.8-91.2v0c-51.2 1.6-92.8 41.6-92.8 92.8v182.4c0 49.6 41.6 89.6 92.8 89.6zM931.2 880v0c51.2 0 92.8-40 92.8-91.2v-681.6c0-49.6-41.6-91.2-92.8-91.2v0c-51.2 0-92.8 40-92.8 91.2v681.6c0 51.2 41.6 91.2 92.8 91.2z" />
<glyph unicode="&#xe92c;" glyph-name="stopwatch_backward" d="M584 777.6v11.2c46.4 3.2 81.6 44.8 78.4 92.8-3.2 44.8-40 80-84.8 80h-131.2c-46.4 0-84.8-38.4-83.2-86.4 0-44.8 33.6-81.6 76.8-84.8v-11.2c-40-6.4-78.4-20.8-115.2-38.4l-28.8 40c-20.8 28.8-59.2 33.6-88 12.8s-33.6-60.8-12.8-89.6l27.2-36.8c-164.8-166.4-169.6-433.6-9.6-601.6s422.4-172.8 588.8-9.6 169.6 430.4 9.6 600c-60.8 62.4-140.8 105.6-227.2 121.6v0zM417.6 844.8c-16 16-16 41.6 0 57.6 8 8 17.6 11.2 28.8 11.2h131.2c22.4 0 40-17.6 40-40 0-19.2-14.4-36.8-32-40v25.6c0 12.8-9.6 22.4-22.4 22.4v0h-99.2c-12.8 0-22.4-9.6-22.4-22.4v0-24c-9.6 0-17.6 4.8-24 9.6zM484.8 835.2h54.4v-52.8c-9.6 1.6-17.6 1.6-27.2 1.6s-17.6 0-27.2-1.6v52.8zM230.4 729.6c-4.8 8-3.2 19.2 4.8 25.6 8 4.8 17.6 3.2 24-3.2l25.6-35.2c-9.6-6.4-19.2-14.4-28.8-20.8l-25.6 33.6zM512-19.2c-204.8 0-371.2 169.6-371.2 379.2s166.4 377.6 371.2 377.6 371.2-169.6 371.2-379.2v0c0-208-166.4-377.6-371.2-377.6zM512 697.6c-180.8 3.2-329.6-144-332.8-328-3.2-182.4 140.8-334.4 321.6-337.6s329.6 144 332.8 328c0 1.6 0 3.2 0 4.8 1.6 182.4-142.4 331.2-321.6 332.8zM512 76.8c-155.2-3.2-284.8 124.8-286.4 283.2-3.2 158.4 121.6 289.6 278.4 292.8 155.2 3.2 283.2-124.8 284.8-283.2 0-1.6 0-3.2 0-4.8 1.6-156.8-123.2-286.4-276.8-288zM542.4 473.6l11.2-11.2c1.6-1.6 1.6-3.2 1.6-4.8s0-3.2-1.6-4.8l-88-89.6 88-89.6c1.6-1.6 1.6-3.2 1.6-4.8s0-3.2-1.6-4.8l-11.2-11.2c-1.6-1.6-3.2-1.6-4.8-1.6s-3.2 0-4.8 1.6l-105.6 107.2c-1.6 1.6-1.6 3.2-1.6 4.8s0 3.2 1.6 4.8l105.6 107.2c1.6 1.6 3.2 1.6 4.8 1.6 1.6-3.2 3.2-3.2 4.8-4.8z" />
<glyph unicode="&#xe92d;" glyph-name="stopwatch_forward" d="M584 777.6v11.2c46.4 3.2 81.6 44.8 78.4 92.8-3.2 44.8-40 80-84.8 80h-131.2c-46.4 0-84.8-38.4-83.2-86.4 0-44.8 33.6-81.6 76.8-84.8v-11.2c-40-6.4-78.4-20.8-115.2-38.4l-28.8 40c-20.8 28.8-59.2 33.6-88 12.8s-33.6-60.8-12.8-89.6l27.2-36.8c-164.8-166.4-169.6-433.6-9.6-601.6s422.4-172.8 588.8-9.6 169.6 430.4 9.6 600c-60.8 62.4-140.8 105.6-227.2 121.6v0zM417.6 844.8c-16 16-16 41.6 0 57.6 8 8 17.6 11.2 28.8 11.2h131.2c22.4 0 40-17.6 40-40 0-19.2-14.4-36.8-32-40v25.6c0 12.8-9.6 22.4-22.4 22.4v0h-99.2c-12.8 0-22.4-9.6-22.4-22.4v0-24c-9.6 0-17.6 4.8-24 9.6zM484.8 835.2h54.4v-52.8c-9.6 1.6-17.6 1.6-27.2 1.6s-17.6 0-27.2-1.6v52.8zM230.4 729.6c-4.8 8-3.2 19.2 4.8 25.6 8 4.8 17.6 3.2 24-3.2l25.6-35.2c-9.6-6.4-19.2-14.4-28.8-20.8l-25.6 33.6zM512-19.2c-204.8 0-371.2 169.6-371.2 379.2s166.4 377.6 371.2 377.6 371.2-169.6 371.2-379.2v0c0-208-166.4-377.6-371.2-377.6zM512 697.6c-180.8 3.2-329.6-144-332.8-328-3.2-182.4 140.8-334.4 321.6-337.6s329.6 144 332.8 328c0 1.6 0 3.2 0 4.8 1.6 182.4-142.4 331.2-321.6 332.8zM512 76.8c-155.2-3.2-284.8 124.8-286.4 283.2-3.2 158.4 121.6 289.6 278.4 292.8 155.2 3.2 283.2-124.8 284.8-283.2 0-1.6 0-3.2 0-4.8 1.6-156.8-123.2-286.4-276.8-288zM480 475.2c1.6 0 3.2 0 4.8-1.6l105.6-107.2c1.6-1.6 1.6-3.2 1.6-4.8s0-3.2-1.6-4.8l-105.6-107.2c-1.6-1.6-3.2-1.6-4.8-1.6s-3.2 0-4.8 1.6l-11.2 11.2c-1.6 1.6-1.6 3.2-1.6 4.8s0 3.2 1.6 4.8l88 89.6-88 91.2c-1.6 1.6-1.6 3.2-1.6 4.8s0 3.2 1.6 4.8l11.2 11.2c1.6 3.2 3.2 3.2 4.8 3.2z" />
<glyph unicode="&#xe92e;" glyph-name="stopwatch" d="M584 777.6v11.2c46.4 3.2 81.6 44.8 78.4 91.2-3.2 44.8-40 80-84.8 80h-131.2c-46.4 0-84.8-40-83.2-86.4 0-44.8 33.6-81.6 76.8-84.8v-11.2c-40-6.4-78.4-20.8-115.2-38.4l-28.8 40c-20.8 27.2-60.8 32-88 11.2s-32-59.2-12.8-88l27.2-36.8c-164.8-164.8-169.6-432-9.6-600s422.4-172.8 588.8-9.6 169.6 430.4 9.6 600c-60.8 62.4-140.8 105.6-227.2 121.6zM417.6 844.8c-16 16-16 41.6 0 57.6 8 8 17.6 11.2 27.2 11.2h131.2c22.4 0 40-17.6 40-40 0-19.2-14.4-36.8-32-40v25.6c0 12.8-9.6 22.4-22.4 22.4v0h-99.2c-12.8 0-22.4-9.6-22.4-22.4 0 0 0 0 0 0v-24c-8 0-16 4.8-22.4 9.6v0zM484.8 836.8h54.4v-52.8c-9.6 0-17.6 0-27.2 0s-17.6 0-27.2-1.6v54.4zM230.4 729.6c-6.4 8-4.8 19.2 3.2 25.6s19.2 4.8 25.6-3.2v0l25.6-35.2c-9.6-6.4-19.2-14.4-28.8-20.8l-25.6 33.6zM512-19.2c-204.8 0-371.2 169.6-371.2 379.2s166.4 379.2 371.2 379.2c204.8 0 371.2-169.6 371.2-379.2 0 0 0 0 0 0 0-209.6-166.4-379.2-371.2-379.2zM512 697.6c-180.8 3.2-329.6-144-332.8-328-3.2-182.4 140.8-334.4 321.6-337.6s329.6 144 332.8 328c0 1.6 0 3.2 0 4.8 1.6 182.4-142.4 331.2-321.6 332.8zM512 76.8c-155.2-3.2-284.8 124.8-286.4 283.2-3.2 158.4 121.6 289.6 278.4 292.8 155.2 3.2 283.2-124.8 284.8-283.2 0-1.6 0-3.2 0-4.8 1.6-156.8-121.6-286.4-276.8-288zM536 440v152c0 12.8-11.2 24-24 24s-24-11.2-24-24v-152c-46.4-12.8-73.6-62.4-60.8-108.8s60.8-75.2 107.2-60.8c46.4 12.8 73.6 62.4 60.8 108.8-8 28.8-30.4 52.8-59.2 60.8zM512 313.6c-22.4 0-40 17.6-40 40s17.6 40 40 40c22.4 0 40-17.6 40-40v0c0-20.8-19.2-38.4-40-40v0z" />
<glyph unicode="&#xe92f;" glyph-name="test" d="M616 312c-16 0-32 6.4-43.2 17.6l-233.6 240c-22.4 24-22.4 60.8 1.6 84.8s60.8 22.4 84.8-1.6l190.4-195.2 305.6 312c24 24 60.8 24 84.8 1.6s24-60.8 1.6-84.8l-350.4-355.2c-11.2-12.8-25.6-19.2-41.6-19.2v0zM838.4 371.2v-222.4c0-33.6-27.2-59.2-59.2-59.2h-600c-33.6 0-59.2 27.2-59.2 59.2v598.4c0 33.6 27.2 59.2 59.2 59.2h593.6l94.4 94.4c-27.2 16-57.6 25.6-89.6 25.6h-598.4c-99.2 1.6-179.2-80-179.2-179.2v-598.4c0-99.2 80-180.8 179.2-180.8h598.4c99.2 0 179.2 80 179.2 179.2v345.6l-118.4-121.6z" />
<glyph unicode="&#xe930;" glyph-name="tick_fat" d="M432 112c-25.6 0-52.8 9.6-73.6 28.8l-324.8 308.8c-41.6 40-44.8 107.2-3.2 148.8 40 41.6 107.2 44.8 148.8 3.2l252.8-240 414.4 392c43.2 40 108.8 38.4 148.8-3.2s38.4-108.8-3.2-148.8l-488-460.8c-19.2-19.2-46.4-28.8-72-28.8z" />
<glyph unicode="&#xe931;" glyph-name="twitter" d="M1024 753.6c-28.8-41.6-64-75.2-105.6-104 0-6.4 0-14.4 0-25.6 0-54.4-8-108.8-24-161.6-16-54.4-41.6-105.6-75.2-155.2s-73.6-92.8-120-131.2c-46.4-38.4-102.4-68.8-168-91.2s-136-33.6-209.6-33.6c-116.8-3.2-224 27.2-321.6 88 14.4-1.6 32-3.2 51.2-3.2 97.6 0 184 28.8 260.8 86.4-44.8 0-86.4 14.4-121.6 40-36.8 25.6-62.4 59.2-75.2 99.2 14.4-1.6 27.2-3.2 40-3.2 19.2 0 36.8 1.6 54.4 6.4-48 9.6-88 33.6-120 70.4s-48 80-48 128v3.2c28.8-16 60.8-24 94.4-25.6-28.8 17.6-51.2 41.6-68.8 72s-25.6 62.4-25.6 96c0 36.8 9.6 70.4 28.8 102.4 52.8-62.4 116.8-112 192-148.8s155.2-57.6 241.6-62.4c-3.2 16-4.8 32-4.8 46.4 0 56 20.8 104 60.8 142.4 41.6 40 91.2 59.2 148.8 59.2 60.8 0 112-20.8 153.6-64 46.4 8 91.2 25.6 132.8 48-16-48-46.4-84.8-92.8-112 41.6 6.4 81.6 16 121.6 33.6z" />
<glyph unicode="&#xe932;" glyph-name="user" d="M504 520c-121.6 0-219.2 99.2-219.2 220.8s97.6 219.2 219.2 219.2c120 0 219.2-99.2 219.2-220.8s-99.2-219.2-219.2-219.2zM504 873.6c-73.6 0-134.4-60.8-134.4-134.4s60.8-134.4 134.4-134.4 134.4 60.8 134.4 134.4-60.8 134.4-134.4 134.4zM512 355.2c-238.4 0-432-172.8-432-385.6 0-11.2 1.6-22.4 1.6-33.6h86.4c-1.6 11.2-1.6 22.4-1.6 33.6 0 164.8 155.2 299.2 347.2 299.2s347.2-134.4 347.2-299.2c0-11.2-1.6-22.4-1.6-33.6h86.4c1.6 11.2 1.6 22.4 1.6 33.6-3.2 212.8-196.8 385.6-435.2 385.6z" />
<glyph unicode="&#xe933;" glyph-name="youtube" d="M1024 531.2c0-19.2 0-48 0-83.2s0-62.4 0-83.2c0-19.2-1.6-44.8-4.8-75.2s-6.4-57.6-12.8-81.6c-6.4-27.2-19.2-49.6-40-67.2s-43.2-28.8-70.4-32c-84.8-8-212.8-12.8-384-12.8s-299.2 4.8-384 14.4c-27.2 3.2-51.2 12.8-70.4 32s-33.6 41.6-40 67.2c-4.8 24-9.6 51.2-12.8 81.6-1.6 28.8-3.2 54.4-4.8 73.6s0 48 0 83.2 0 62.4 0 83.2c0 19.2 1.6 44.8 4.8 75.2s6.4 57.6 12.8 81.6c6.4 27.2 19.2 49.6 40 67.2s43.2 28.8 70.4 32c84.8 9.6 212.8 14.4 384 14.4s299.2-4.8 384-14.4c27.2-3.2 51.2-12.8 70.4-32 20.8-17.6 33.6-41.6 40-67.2 4.8-24 9.6-51.2 12.8-81.6 1.6-30.4 3.2-56 4.8-75.2zM731.2 448c0 12.8-6.4 24-17.6 30.4l-292.8 176c-11.2 8-24 8-36.8 1.6s-19.2-17.6-19.2-30.4v-352c0-14.4 6.4-24 19.2-30.4 6.4-3.2 11.2-4.8 17.6-4.8 8 0 14.4 1.6 19.2 4.8l292.8 176c12.8 4.8 17.6 16 17.6 28.8z" />
</font>
</defs>
</svg>
