<?xml version="1.0" encoding="utf-8"?>
<!-- Generator: Adobe Illustrator 24.0.1, SVG Export Plug-In . SVG Version: 6.00 Build 0)  -->
<svg version="1.1" id="Layer_1" xmlns="http://www.w3.org/2000/svg" xmlns:xlink="http://www.w3.org/1999/xlink" x="0px" y="0px"
	 viewBox="0 0 2000 960" style="enable-background:new 0 0 2000 960;" xml:space="preserve">
<style type="text/css">
	.st0{opacity:0.5;fill:url(#Path_2_1_);enable-background:new    ;}
	.st1{fill:url(#Path_1_1_);}
	.st2{opacity:5.000000e-02;fill:#1968C3;enable-background:new    ;}
	.st3{opacity:5.000000e-02;fill:url(#Polygon_3_1_);enable-background:new    ;}
	.st4{opacity:5.000000e-02;fill:url(#Polygon_4_1_);enable-background:new    ;}
</style>
<g id="BG" transform="translate(0 155)">
	
		<linearGradient id="Path_2_1_" gradientUnits="userSpaceOnUse" x1="705.1847" y1="553.9863" x2="705.1317" y2="555.0463" gradientTransform="matrix(1921.063 0 0 -1033.983 -1353644.375 573616.875)">
		<stop  offset="0" style="stop-color:#EAF0FD"/>
		<stop  offset="1" style="stop-color:#FFFFFF;stop-opacity:0"/>
	</linearGradient>
	<path id="Path_2" class="st0" d="M0-270.7V593c0,0,891.1,189.2,1092.9,212c164.1-6.7,907.1-282.1,907.1-282.1v-793.5H0z"/>
	
		<linearGradient id="Path_1_1_" gradientUnits="userSpaceOnUse" x1="705.183" y1="553.9855" x2="705.13" y2="555.0455" gradientTransform="matrix(1921.062 0 0 -1042.588 -1353643.75 578331.8125)">
		<stop  offset="0" style="stop-color:#EAF0FD"/>
		<stop  offset="1" style="stop-color:#FFFFFF;stop-opacity:0"/>
	</linearGradient>
	<path id="Path_1" class="st1" d="M0-331v938.8c0,0,887.4,123,1089.2,145.8c164.1-6.7,910.8-252.1,910.8-252.1V-331H0z"/>
	<path id="Polygon_2" class="st2" d="M276.3,110.5c6.8,8.6,8.5,20.2,4.6,30.4l-28.9,75.4c-4.1,10.8-13.9,18.4-25.4,19.8l-80.2,9.9
		c-10.9,1.3-21.7-3.1-28.4-11.8l-52.6-67.3c-6.8-8.6-8.5-20.2-4.6-30.4l28.9-75.4c4.1-10.8,13.9-18.4,25.4-19.8l80.2-9.9
		c10.9-1.3,21.7,3.1,28.4,11.8L276.3,110.5z"/>
	
		<linearGradient id="Polygon_3_1_" gradientUnits="userSpaceOnUse" x1="703.5852" y1="553.6688" x2="703.5852" y2="552.6279" gradientTransform="matrix(221.8194 283.756 249.796 -195.272 -293589.1875 -91208.3047)">
		<stop  offset="0" style="stop-color:#1968C3"/>
		<stop  offset="1" style="stop-color:#0D3462;stop-opacity:0.239"/>
	</linearGradient>
	<path id="Polygon_3" class="st3" d="M823,372.2c13.5,17.3,17,40.4,9.1,60.9l-42.9,111.5c-8.3,21.5-27.7,36.7-50.6,39.5l-118.7,14.7
		c-21.8,2.7-43.4-6.2-56.9-23.5l-78.3-100c-13.5-17.3-17-40.4-9.1-60.9L518.6,303c8.3-21.5,27.7-36.7,50.6-39.5l118.7-14.7
		c21.8-2.7,43.4,6.2,56.9,23.5L823,372.2z"/>
	
		<linearGradient id="Polygon_4_1_" gradientUnits="userSpaceOnUse" x1="704.3501" y1="554.1059" x2="704.3501" y2="553.0649" gradientTransform="matrix(368.4044 471.2706 405.82 -317.24 -482992.25 -156232.2344)">
		<stop  offset="0" style="stop-color:#1968C3"/>
		<stop  offset="1" style="stop-color:#0D3462;stop-opacity:0.239"/>
	</linearGradient>
	<path id="Polygon_4" class="st4" d="M1438,21.6c13.5,17.3,17,40.4,9.1,60.8l-86,223.7c-8.3,21.5-27.8,36.7-50.7,39.6l-238,29.4
		c-21.8,2.7-43.4-6.2-56.9-23.5L860.9,154c-13.5-17.3-17-40.4-9.1-60.8l86-223.7c8.3-21.5,27.8-36.7,50.7-39.6l238-29.4
		c21.8-2.7,43.4,6.2,56.9,23.5L1438,21.6z"/>
</g>
</svg>
